# xmcd CD database file
#
# Track frame offsets:
#	150
#	17917
#	43315
#	66662
#	88945
#	108727
#	131442
#
# Disc length: 2224 seconds
#
# Revision: 0
# Processed by: cddbd v1.5.1PL0 Copyright (c) Steve Scherf et al.
# Submitted via: CDex 1.51
#
DISCID=6a08ae07
DTITLE=Johnny Griffin - Introducing Johnny Griffin
DYEAR=1956
DGENRE=Jazz
TTITLE0=Mil Dew
TTITLE1=Chicago Calling
TTITLE2=These Foolish Things
TTITLE3=The Boy Next Door
TTITLE4=Nice And Easy
TTITLE5=It's Alright With Me
TTITLE6=Lover Man
EXTD=YEAR: 1956
EXTT0=
EXTT1=
EXTT2=
EXTT3=
EXTT4=
EXTT5=
EXTT6=
PLAYORDER=
